<svg width="109" height="26" viewBox="0 0 109 26" fill="none" xmlns="http://www.w3.org/2000/svg">
<path d="M9.1377 3.96973C10.2453 3.57813 11.441 3.47618 12.6016 3.6748C13.7478 3.87099 14.8225 4.35503 15.7178 5.0791C15.7289 5.08746 15.7411 5.09464 15.752 5.10352L15.9746 5.29395C16.8529 6.08158 17.4922 7.08479 17.8262 8.19531C19.1168 8.33909 20.3335 8.89274 21.2715 9.78809C22.3724 10.839 22.9999 12.275 23 13.7822L22.9932 14.0645C22.9201 15.4681 22.3037 16.792 21.2715 17.7773C20.2407 18.7612 18.8736 19.3335 17.4414 19.4014L17.1543 19.4082H12.3711V24.5762C12.371 25.1283 11.9232 25.576 11.3711 25.5762C10.8189 25.5762 10.3712 25.1284 10.3711 24.5762V19.4082H5.8457C5.08448 19.4081 4.32965 19.2653 3.62402 18.9863C2.91819 18.7073 2.27332 18.2974 1.72852 17.7773C1.18366 17.2573 0.748773 16.6369 0.451172 15.9512C0.190717 15.351 0.0403575 14.7113 0.00683594 14.0615L0 13.7822C5.68469e-05 13.037 0.153625 12.3 0.451172 11.6143C0.748746 10.9285 1.18368 10.3082 1.72852 9.78809C2.27332 9.26805 2.91818 8.85819 3.62402 8.5791C4.07938 8.39907 4.55522 8.27588 5.04004 8.21094C5.29014 7.37184 5.71483 6.58892 6.29199 5.91309C7.04608 5.03015 8.03007 4.36139 9.1377 3.96973ZM77.8369 15.7314L80.9961 8.63965H83.0605L76.6523 23.3516H74.4443L76.709 18.2646L72.1162 8.63965H74.6357L77.8369 15.7314ZM34.6094 9.98828C35.0046 9.4869 35.5476 9.07642 36.2412 8.75977C36.9931 8.40784 37.8254 8.23242 38.7373 8.23242C39.633 8.23247 40.4487 8.44808 41.1846 8.87988C41.9206 9.31188 42.5055 9.9201 42.9375 10.7041C43.3854 11.472 43.6094 12.3921 43.6094 13.4639C43.6094 14.5839 43.3687 15.5438 42.8887 16.3438C42.4247 17.1437 41.8006 17.7604 41.0166 18.1924C40.2328 18.6082 39.377 18.8164 38.4492 18.8164C37.5373 18.8164 36.7293 18.6157 36.0254 18.2158C35.4732 17.8948 35.0098 17.5058 34.6328 17.0508V18.5762H32.4014V0H34.6094V9.98828ZM50.876 8.23242C51.8038 8.23248 52.5876 8.44798 53.2275 8.87988C53.8132 9.26054 54.2705 9.70901 54.6016 10.2236L54.7637 8.63965H56.8271V18.5762H54.5957V16.9482C54.5398 17.0214 54.4762 17.1003 54.4033 17.1836C54.1954 17.4235 53.9078 17.6718 53.54 17.9277C53.188 18.1837 52.7794 18.4002 52.3154 18.5762C51.8516 18.7361 51.3317 18.8164 50.7559 18.8164C49.8279 18.8164 48.9799 18.6158 48.2119 18.2158C47.4599 17.8158 46.8591 17.2319 46.4111 16.4639C45.9793 15.68 45.7637 14.7281 45.7637 13.6084C45.7637 12.5044 45.996 11.552 46.46 10.752C46.924 9.93605 47.5397 9.31185 48.3076 8.87988C49.0916 8.44791 49.948 8.23242 50.876 8.23242ZM89.4072 8.23242C90.335 8.23248 91.1189 8.44798 91.7588 8.87988C92.3444 9.26054 92.8017 9.70901 93.1328 10.2236L93.2949 8.63965H95.3584V18.5762H93.127V16.9482C93.071 17.0214 93.0075 17.1003 92.9346 17.1836C92.7266 17.4235 92.4391 17.6718 92.0713 17.9277C91.7193 18.1837 91.3107 18.4002 90.8467 18.5762C90.3828 18.7361 89.8629 18.8164 89.2871 18.8164C88.3592 18.8164 87.5111 18.6158 86.7432 18.2158C85.9912 17.8158 85.3904 17.2319 84.9424 16.4639C84.5105 15.68 84.295 14.7281 84.2949 13.6084C84.2949 12.5044 84.5272 11.552 84.9912 10.752C85.4552 9.93605 86.0709 9.31185 86.8389 8.87988C87.6228 8.44791 88.4793 8.23242 89.4072 8.23242ZM66.834 8.25586C67.7778 8.25586 68.5457 8.53593 69.1377 9.0957C69.7457 9.6397 70.0582 10.3524 70.0742 11.2324V18.5762H67.8184V12.0244C67.8024 11.4804 67.6419 11.0401 67.3379 10.7041C67.0499 10.3521 66.5937 10.1758 65.9697 10.1758C65.3939 10.1758 64.8741 10.3363 64.4102 10.6562C63.9462 10.9762 63.5776 11.4157 63.3057 11.9756C63.0497 12.5356 62.9219 13.184 62.9219 13.9199V18.5762H60.6904V8.63965H62.6816L62.834 10.5625C63.1571 9.88205 63.657 9.33629 64.3379 8.92773C65.0579 8.47975 65.89 8.25588 66.834 8.25586ZM105.365 8.25586C106.309 8.25586 107.077 8.53593 107.669 9.0957C108.277 9.6397 108.589 10.3524 108.605 11.2324V18.5762H106.35V12.0244C106.334 11.4804 106.173 11.0401 105.869 10.7041C105.581 10.3521 105.125 10.1758 104.501 10.1758C103.925 10.1758 103.405 10.3363 102.941 10.6562C102.477 10.9762 102.109 11.4157 101.837 11.9756C101.581 12.5356 101.453 13.184 101.453 13.9199V18.5762H99.2217V8.63965H101.213L101.365 10.5625C101.688 9.88205 102.188 9.33629 102.869 8.92773C103.589 8.47975 104.421 8.25588 105.365 8.25586ZM12.2637 5.64648C11.4385 5.50533 10.5889 5.57729 9.80469 5.85449C9.02048 6.13175 8.33415 6.60323 7.81348 7.21289C7.29323 7.82214 6.95689 8.54855 6.83398 9.31543C6.75607 9.80022 6.33675 10.1572 5.8457 10.1572C5.33456 10.1573 4.82929 10.2527 4.35938 10.4385C3.88939 10.6243 3.46551 10.8964 3.11035 11.2354C2.75537 11.5742 2.47559 11.9736 2.28613 12.4102C2.09681 12.8465 2.00006 13.3129 2 13.7822L2.00488 13.959C2.02607 14.3683 2.1206 14.7727 2.28613 15.1543C2.47561 15.5909 2.7553 15.9912 3.11035 16.3301C3.46547 16.669 3.88946 16.9402 4.35938 17.126C4.82934 17.3118 5.3345 17.4081 5.8457 17.4082H10.3711V16.5234L8.25684 14.5059L8.18652 14.4316C7.8573 14.0465 7.86724 13.4663 8.22461 13.0918C8.58209 12.7176 9.16055 12.6813 9.56055 12.9922L9.6377 13.0596L11.3701 14.7129L13.1035 13.0596L13.1807 12.9922C13.5808 12.681 14.1601 12.7173 14.5176 13.0918C14.8988 13.4913 14.8837 14.1245 14.4844 14.5059L12.3711 16.5234V17.4082H17.1543L17.3477 17.4043C18.3106 17.3585 19.2166 16.9724 19.8896 16.3301C20.6061 15.6462 21 14.7284 21 13.7822L20.9951 13.6055C20.9492 12.7226 20.5613 11.8765 19.8896 11.2354C19.2165 10.5929 18.3107 10.2069 17.3477 10.1611L17.1543 10.1572H17.0244C16.5333 10.1571 16.1148 9.7994 16.0371 9.31445C15.8734 8.29218 15.3315 7.3493 14.4961 6.66016C14.4925 6.65727 14.488 6.65527 14.4844 6.65234C13.8556 6.13692 13.089 5.78775 12.2637 5.64648ZM51.2832 10.0801C50.6914 10.0801 50.1473 10.2238 49.6514 10.5117C49.1554 10.7997 48.7552 11.1999 48.4512 11.7119C48.1633 12.2238 48.0196 12.8239 48.0195 13.5117C48.0195 14.1516 48.1717 14.7357 48.4756 15.2637C48.7795 15.7915 49.1874 16.2077 49.6992 16.5117C50.2112 16.8157 50.7635 16.9678 51.3555 16.9678C51.9153 16.9678 52.4193 16.8641 52.8672 16.6562C53.3152 16.4482 53.6837 16.16 53.9717 15.792C54.2757 15.408 54.4837 14.9518 54.5957 14.4238V12.4805C54.4677 12.0006 54.2437 11.5843 53.9238 11.2324C53.6038 10.8644 53.2195 10.5836 52.7715 10.3916C52.3235 10.1837 51.8271 10.0801 51.2832 10.0801ZM89.8145 10.0801C89.2226 10.0801 88.6785 10.2238 88.1826 10.5117C87.6866 10.7997 87.2864 11.1999 86.9824 11.7119C86.6945 12.2238 86.5508 12.8239 86.5508 13.5117C86.5508 14.1516 86.7029 14.7357 87.0068 15.2637C87.3108 15.7915 87.7187 16.2077 88.2305 16.5117C88.7424 16.8157 89.2948 16.9678 89.8867 16.9678C90.4465 16.9678 90.9505 16.8641 91.3984 16.6562C91.8464 16.4482 92.2149 16.16 92.5029 15.792C92.8069 15.408 93.015 14.9518 93.127 14.4238V12.4805C92.999 12.0006 92.7749 11.5843 92.4551 11.2324C92.1351 10.8644 91.7507 10.5836 91.3027 10.3916C90.8548 10.1837 90.3584 10.0801 89.8145 10.0801ZM37.9932 10.0078C37.4493 10.0078 36.9454 10.1124 36.4814 10.3203C36.0175 10.5283 35.6247 10.8156 35.3047 11.1836C34.9847 11.5355 34.7608 11.9518 34.6328 12.4316V14.4238C34.7608 14.9038 34.9773 15.3357 35.2812 15.7197C35.5852 16.0877 35.9687 16.3844 36.4326 16.6084C36.8966 16.8164 37.4172 16.9199 37.9932 16.9199C38.633 16.9199 39.2088 16.7678 39.7207 16.4639C40.2326 16.1599 40.6329 15.7521 40.9209 15.2402C41.2088 14.7123 41.3535 14.1123 41.3535 13.4404C41.3535 12.8005 41.2014 12.2239 40.8975 11.7119C40.6095 11.184 40.2092 10.7679 39.6973 10.4639C39.2013 10.1599 38.6331 10.0078 37.9932 10.0078Z" fill="#115E59"/>
</svg>
